<svg width="32" height="32" viewBox="0 0 32 32" fill="none" xmlns="http://www.w3.org/2000/svg">
<mask id="path-1-inside-1_1026_8267" fill="white">
<path d="M16 -6.99382e-07C20.036 -8.758e-07 23.9228 1.52528 26.8817 4.27016C29.8405 7.01504 31.6527 10.7767 31.955 14.8013C32.2574 18.826 31.0276 22.8162 28.5121 25.9723C25.9966 29.1285 22.3812 31.2174 18.3906 31.8204L16 16L16 -6.99382e-07Z"/>
</mask>
<path d="M16 -6.99382e-07C20.036 -8.758e-07 23.9228 1.52528 26.8817 4.27016C29.8405 7.01504 31.6527 10.7767 31.955 14.8013C32.2574 18.826 31.0276 22.8162 28.5121 25.9723C25.9966 29.1285 22.3812 31.2174 18.3906 31.8204L16 16L16 -6.99382e-07Z" fill="#F1F0EA" stroke="#F1F0EA" stroke-width="4" mask="url(#path-1-inside-1_1026_8267)"/>
<circle cx="16" cy="16" r="15" transform="rotate(-90 16 16)" stroke="#F1F0EA" stroke-width="2"/>
</svg>
